<?xml version="1.0" encoding="UTF-8" standalone="no"?>
<svg
   xmlns="http://www.w3.org/2000/svg"
   xmlns:xlink="http://www.w3.org/1999/xlink"
   id="svg8"
   version="1.1"
   viewBox="0 0 512 512"
   height="512"
   width="512">

   <defs>
      <clipPath id="ldsp">
         <path
            d="m 367.38493,18.441369 -252.07351,10.238439 5.71212,441.099192 2.80301,-0.32296 64.22893,4.74319 175.78384,13.39036 0.61058,1.06793 2.59084,-0.22867 28.04197,-27.28286 0.32296,-427.939863 z m -3.05054,3.118916 0.24752,452.099095 -241.00288,-17.95912 1.54177,-2.31502 2.41639,-1.14101 -5.11333,-413.219898 h -4.74084 l -0.0259,-8.324183 z"
            style="opacity:0.30500004;fill:#000000;fill-opacity:1;stroke:none;stroke-width:1.20701826px;stroke-linecap:butt;stroke-linejoin:miter;stroke-opacity:1" />
      </clipPath>
      <clipPath id="profil">
         <path
            d="m 364.33439,21.560285 -246.6773,9.139864 0.026,8.324183 4.68663,-0.148519 5.16754,413.368417 -2.41639,1.14101 -1.54177,2.31502 241.02175,17.42633 C 363.76506,329.42027 364.39374,176.2297 364.31552,29.448339 h -0.0165 z m -4.68899,8.578789 0.0495,140.695436 -117.96484,0.37247 L 240.9969,34.172684 Z M 236.88315,35.240613 237.61161,171.22113 128.0912,171.56532 126.639,38.739079 Z M 359.69726,175.9997 359.74676,314.83981 242.47738,310.6176 241.756,176.02798 Z m -122.05972,0.0282 0.72138,134.44346 -108.79431,-3.91804 -1.42626,-130.49943 z m -108.03049,134.39866 108.77545,4.45796 0.70487,131.47541 -108.08235,-8.04364 z m 112.89393,4.62769 117.24815,4.8045 0.0472,135.48781 -116.59042,-8.68015 z"
            style="opacity:0.30500004;fill:#008400;fill-opacity:1;stroke:none;stroke-width:1.20701826px;stroke-linecap:butt;stroke-linejoin:miter;stroke-opacity:1" />
      </clipPath>
      <clipPath id="steklo">
         <path
            d="m 359.6454,30.139074 -118.64849,4.03361 0.73317,137.034296 117.96483,-0.37247 z m -122.76225,5.101539 -110.24415,3.498466 1.4522,132.826241 109.52041,-0.34419 z m 122.81411,140.759087 -117.94124,0.0282 0.72137,134.58962 117.26939,4.22221 z m -122.05972,0.0282 -109.49919,0.0259 1.42626,130.49943 108.79431,3.91809 z m -108.03049,134.39866 1.39797,127.88973 108.08235,8.04364 -0.70487,-131.47541 z m 112.89393,4.62769 0.70487,131.61216 116.59043,8.68015 -0.0472,-135.48781 z"
            style="opacity:0.30500004;fill:#2984d0;fill-opacity:1;stroke:none;stroke-width:1.20701826px;stroke-linecap:butt;stroke-linejoin:miter;stroke-opacity:1" />
      </clipPath>
   </defs>
</svg>
