<svg width="53" height="1228" viewBox="0 0 53 1228" fill="none" xmlns="http://www.w3.org/2000/svg">
<path d="M11.5 0V4.97512H14.5V0H11.5ZM11.5 12.9353V22.8856H14.5V12.9353H11.5ZM11.5 30.8458V40.796H14.5V30.8458H11.5ZM11.5 48.7562V58.7065H14.5V48.7562H11.5ZM11.5 66.6667V76.6169H14.5V66.6667H11.5ZM11.5 84.5771V94.5274H14.5V84.5771H11.5ZM11.5 102.488V112.438H14.5V102.488H11.5ZM11.5 120.398V130.348H14.5V120.398H11.5ZM11.5 138.308V148.259H14.5V138.308H11.5ZM11.5 156.219V166.169H14.5V156.219H11.5ZM11.5 174.129V184.08H14.5V174.129H11.5ZM11.5 192.04V201.99H14.5V192.04H11.5ZM11.5 209.95V219.901H14.5V209.95H11.5ZM11.5 227.861V237.811H14.5V227.861H11.5ZM11.5 245.771V255.721H14.5V245.771H11.5ZM11.5 263.682V273.632H14.5V263.682H11.5ZM11.5 281.592V291.542H14.5V281.592H11.5ZM11.5 299.503V309.453H14.5V299.503H11.5ZM11.5 317.413V327.363H14.5V317.413H11.5ZM11.5 335.324V345.274H14.5V335.324H11.5ZM11.5 353.234V363.184H14.5V353.234H11.5ZM11.5 371.144V381.095H14.5V371.144H11.5ZM11.5 389.055V399.005H14.5V389.055H11.5ZM11.5 406.965V416.916H14.5V406.965H11.5ZM11.5 424.876V434.826H14.5V424.876H11.5ZM11.5 442.786V452.737H14.5V442.786H11.5ZM11.5 460.697V470.647H14.5V460.697H11.5ZM11.5 478.607V488.557H14.5V478.607H11.5ZM11.5 496.518V506.468H14.5V496.518H11.5ZM11.5 514.428V524.378H14.5V514.428H11.5ZM11.5 532.339V542.289H14.5V532.339H11.5ZM11.5 550.249V560.199H14.5V550.249H11.5ZM11.5 568.159V578.11H14.5V568.159H11.5ZM11.5 586.07V596.02H14.5V586.07H11.5ZM11.5 603.98V613.931H14.5V603.98H11.5ZM11.5 621.891V631.841H14.5V621.891H11.5ZM11.5 639.801V649.752H14.5V639.801H11.5ZM11.5 657.712V667.662H14.5V657.712H11.5ZM11.5 675.622V685.573H14.5V675.622H11.5ZM11.5 693.533V703.483H14.5V693.533H11.5ZM11.5 711.443V721.393H14.5V711.443H11.5ZM11.5 729.354V739.304H14.5V729.354H11.5ZM11.5 747.264V757.214H14.5V747.264H11.5ZM11.5 765.175V775.125H14.5V765.175H11.5ZM11.5 783.085V793.035H14.5V783.085H11.5ZM11.5 800.996V810.946H14.5V800.996H11.5ZM11.5 818.906V828.856H14.5V818.906H11.5ZM11.5 836.816V846.767H14.5V836.816H11.5ZM11.5 854.727V864.677H14.5V854.727H11.5ZM11.5 872.637V882.588H14.5V872.637H11.5ZM11.5 890.548V900.498H14.5V890.548H11.5ZM11.5 908.458V918.409H14.5V908.458H11.5ZM11.5 926.369V936.319H14.5V926.369H11.5ZM11.5 944.279V954.229H14.5V944.279H11.5ZM11.5 962.19V972.14H14.5V962.19H11.5ZM11.5 980.1V990.05H14.5V980.1H11.5ZM11.5 998.011V1007.96H14.5V998.011H11.5ZM11.5 1015.92V1025.87H14.5V1015.92H11.5ZM11.5 1033.83V1043.78H14.5V1033.83H11.5ZM11.5 1051.74V1061.69H14.5V1051.74H11.5ZM11.5 1069.65V1079.6H14.5V1069.65H11.5ZM11.5 1087.56V1097.51H14.5V1087.56H11.5ZM11.5 1105.47V1115.42H14.5V1105.47H11.5ZM11.5 1123.38V1133.33H14.5V1123.38H11.5ZM11.5 1141.29V1151.24H14.5V1141.29H11.5ZM11.5 1159.2V1169.15H14.5V1159.2H11.5ZM11.5 1177.11V1187.06H14.5V1177.11H11.5ZM11.5 1195.03V1200H14.5V1195.03H11.5Z" fill="#2C87A6"/>
<circle cx="13" cy="210" r="8.5" fill="white" stroke="#2C87A6" stroke-width="7"/>
<circle cx="13" cy="511" r="8.5" fill="white" stroke="#2C87A6" stroke-width="7"/>
<circle cx="13" cy="812" r="8.5" fill="white" stroke="#2C87A6" stroke-width="7"/>
<circle cx="20" cy="1208" r="16.5" fill="white" stroke="#2C87A6" stroke-width="7"/>
<rect x="18" y="1131" width="3" height="60" fill="#2C87A6"/>
<path d="M53 1149L23 1166.32L23 1131.68L53 1149Z" fill="#FF6600"/>
</svg>
