<svg width="51" height="50" viewBox="0 0 51 50" fill="none" xmlns="http://www.w3.org/2000/svg">
<g clip-path="url(#clip0)">
<path d="M34.7969 22.9873C35.1795 22.6054 35.1795 21.9851 34.7969 21.6036C34.4151 21.221 33.7959 21.221 33.4133 21.6036C33.0315 21.9851 33.0315 22.6054 33.4133 22.9873C33.7959 23.3698 34.4151 23.3698 34.7969 22.9873Z" fill="#FF6600"/>
<path d="M0.978474 50.1464H49.1194C49.515 50.1464 49.872 49.9083 50.0233 49.5425C50.1747 49.1767 50.091 48.7559 49.8112 48.4761L1.67028 0.335585C1.3905 0.05542 0.969683 -0.0279031 0.603902 0.123455C0.238503 0.274812 0 0.63142 0 1.0274V49.1679C0 49.7084 0.43802 50.1464 0.978474 50.1464ZM1.95695 3.38949L9.82754 11.2601L7.75135 13.3351C7.36913 13.7174 7.36913 14.3369 7.75135 14.7191C8.1328 15.101 8.75275 15.1017 9.13497 14.7191L11.2112 12.6437L15.3624 16.7953L13.2866 18.8704C12.9044 19.2526 12.9044 19.8722 13.2862 20.2544C13.6681 20.6362 14.288 20.637 14.6702 20.2544L16.7464 18.179L20.8973 22.3302L18.8219 24.406C18.4396 24.7879 18.4396 25.4074 18.8219 25.7897C19.2041 26.1719 19.8233 26.1719 20.2055 25.7897L22.2813 23.7138L26.4325 27.8655L24.3571 29.9413C23.9749 30.3231 23.9749 30.9427 24.3571 31.3249C24.7393 31.7071 25.3585 31.7071 25.7407 31.3249L27.8166 29.2495L31.9678 33.4003L29.8924 35.4765C29.5102 35.8588 29.5102 36.4783 29.8924 36.8605C30.2746 37.2424 30.8942 37.2424 31.2764 36.8602L33.3514 34.7844L37.5027 38.9356L35.4272 41.0118C35.0454 41.394 35.0454 42.0136 35.4276 42.3954C35.8095 42.7776 36.4294 42.7776 36.8116 42.3954L38.8867 40.3192L46.7569 48.1894H1.95695V3.38949Z" fill="#FF6600"/>
<path d="M10.0843 20.3931C9.80456 20.1134 9.38374 20.0297 9.01796 20.181C8.65257 20.3324 8.41406 20.6894 8.41406 21.085V40.753C8.41406 41.2935 8.85208 41.7315 9.39254 41.7315H29.0606C29.4566 41.7315 29.8132 41.4934 29.9649 41.1276C30.1163 40.7622 30.0322 40.341 29.7528 40.0612L10.0843 20.3931ZM10.371 39.775V23.4474L26.6985 39.775H10.371Z" fill="#FF6600"/>
<path d="M30.6473 20.22C31.0295 20.6022 31.6487 20.6022 32.0313 20.22C32.4131 19.8382 32.4131 19.2186 32.0313 18.8364L27.8793 14.6847C27.4974 14.3025 26.8779 14.3025 26.4956 14.6847C26.1134 15.0666 26.1134 15.6862 26.4956 16.0684L30.6473 20.22Z" fill="#FF6600"/>
<path d="M14.8524 10.0213L42.3185 37.487C43.4651 38.6344 45.3227 38.6344 46.4701 37.487L49.2373 34.7201C50.3813 33.5762 50.3813 31.7136 49.2373 30.5681L21.7717 3.10244C21.6643 2.99504 21.5332 2.91401 21.3891 2.86623L13.0866 0.0989869C12.7353 -0.0179713 12.3474 0.0733784 12.0855 0.335579C11.8233 0.597397 11.732 0.984964 11.8489 1.3366L14.6162 9.6391C14.6643 9.7832 14.745 9.91392 14.8524 10.0213ZM47.8529 31.9517C48.2348 32.3336 48.2348 32.9551 47.8533 33.3361L45.0865 36.1034C44.7042 36.4856 44.0847 36.486 43.7021 36.1034L41.5819 33.9832L45.7332 29.8316L47.8529 31.9517ZM44.3496 28.448L40.1979 32.5996L38.8143 31.2156L42.9659 27.0647L44.3496 28.448ZM21.7273 5.82573L41.5819 25.6803L37.4307 29.832L17.5757 9.97698L21.7273 5.82573ZM20.2394 4.54569L16.2956 8.48902L14.3242 2.57422L20.2394 4.54569Z" fill="#FF6600"/>
</g>
<defs>
<clipPath id="clip0">
<rect width="50.0978" height="50" fill="white"/>
</clipPath>
</defs>
</svg>
