<svg width="50" height="50" viewBox="0 0 50 50" fill="none" xmlns="http://www.w3.org/2000/svg">
<g clip-path="url(#clip0)">
<path d="M2.5 10H4.16667V10.8333C4.16667 11.2936 4.53976 11.6667 5 11.6667C5.46024 11.6667 5.83333 11.2936 5.83333 10.8333V10H7.5C8.88071 10 10 8.88071 10 7.5V5.83333H10.8333C11.2936 5.83333 11.6667 5.46024 11.6667 5C11.6667 4.53976 11.2936 4.16667 10.8333 4.16667H10V2.5C10 1.11929 8.88071 0 7.5 0H2.5C1.11929 0 0 1.11929 0 2.5V7.5C0 8.88071 1.11929 10 2.5 10ZM1.66667 2.5C1.66667 2.03976 2.03976 1.66667 2.5 1.66667H7.5C7.96024 1.66667 8.33333 2.03976 8.33333 2.5V7.5C8.33333 7.96024 7.96024 8.33333 7.5 8.33333H2.5C2.03976 8.33333 1.66667 7.96024 1.66667 7.5V2.5Z" fill="#FF6600"/>
<path d="M2.5 50H7.5C8.88071 50 10 48.8807 10 47.5V45.8333H10.8333C11.2936 45.8333 11.6667 45.4602 11.6667 45C11.6667 44.5398 11.2936 44.1667 10.8333 44.1667H10V42.5C10 41.1193 8.88071 40 7.5 40H5.83333V39.1667C5.83333 38.7064 5.46024 38.3333 5 38.3333C4.53976 38.3333 4.16667 38.7064 4.16667 39.1667V40H2.5C1.11929 40 0 41.1193 0 42.5V47.5C0 48.8807 1.11929 50 2.5 50ZM1.66667 42.5C1.66667 42.0398 2.03976 41.6667 2.5 41.6667H7.5C7.96024 41.6667 8.33333 42.0398 8.33333 42.5V47.5C8.33333 47.9602 7.96024 48.3333 7.5 48.3333H2.5C2.03976 48.3333 1.66667 47.9602 1.66667 47.5V42.5Z" fill="#FF6600"/>
<path d="M47.5007 40H45.834V39.1667C45.834 38.7064 45.4609 38.3333 45.0007 38.3333C44.5404 38.3333 44.1673 38.7064 44.1673 39.1667V40H42.5007C41.1199 40 40.0007 41.1193 40.0007 42.5V44.1667H39.1673C38.7071 44.1667 38.334 44.5398 38.334 45C38.334 45.4602 38.7071 45.8333 39.1673 45.8333H40.0007V47.5C40.0007 48.8807 41.1199 50 42.5007 50H47.5007C48.8814 50 50.0007 48.8807 50.0007 47.5V42.5C50.0007 41.1193 48.8814 40 47.5007 40ZM48.334 47.5C48.334 47.9602 47.9609 48.3333 47.5007 48.3333H42.5007C42.0404 48.3333 41.6673 47.9602 41.6673 47.5V42.5C41.6673 42.0398 42.0404 41.6667 42.5007 41.6667H47.5007C47.9609 41.6667 48.334 42.0398 48.334 42.5V47.5Z" fill="#FF6600"/>
<path d="M15.834 5.83334C16.2942 5.83334 16.6673 5.46024 16.6673 5.00001C16.6673 4.53977 16.2942 4.16667 15.834 4.16667H14.1673C13.7071 4.16667 13.334 4.53977 13.334 5.00001C13.334 5.46024 13.7071 5.83334 14.1673 5.83334H15.834Z" fill="#FF6600"/>
<path d="M20.834 5.83334C21.2942 5.83334 21.6673 5.46024 21.6673 5.00001C21.6673 4.53977 21.2942 4.16667 20.834 4.16667H19.1673C18.7071 4.16667 18.334 4.53977 18.334 5.00001C18.334 5.46024 18.7071 5.83334 19.1673 5.83334H20.834Z" fill="#FF6600"/>
<path d="M25.834 5.83334C26.2942 5.83334 26.6673 5.46024 26.6673 5.00001C26.6673 4.53977 26.2942 4.16667 25.834 4.16667H24.1673C23.7071 4.16667 23.334 4.53977 23.334 5.00001C23.334 5.46024 23.7071 5.83334 24.1673 5.83334H25.834Z" fill="#FF6600"/>
<path d="M30.834 5.83334C31.2942 5.83334 31.6673 5.46024 31.6673 5.00001C31.6673 4.53977 31.2942 4.16667 30.834 4.16667H29.1673C28.7071 4.16667 28.334 4.53977 28.334 5.00001C28.334 5.46024 28.7071 5.83334 29.1673 5.83334H30.834Z" fill="#FF6600"/>
<path d="M14.1673 44.1667C13.7071 44.1667 13.334 44.5398 13.334 45C13.334 45.4602 13.7071 45.8333 14.1673 45.8333H15.834C16.2942 45.8333 16.6673 45.4602 16.6673 45C16.6673 44.5398 16.2942 44.1667 15.834 44.1667H14.1673Z" fill="#FF6600"/>
<path d="M19.1673 44.1667C18.7071 44.1667 18.334 44.5398 18.334 45C18.334 45.4602 18.7071 45.8333 19.1673 45.8333H20.834C21.2942 45.8333 21.6673 45.4602 21.6673 45C21.6673 44.5398 21.2942 44.1667 20.834 44.1667H19.1673Z" fill="#FF6600"/>
<path d="M24.1673 44.1667C23.7071 44.1667 23.334 44.5398 23.334 45C23.334 45.4602 23.7071 45.8333 24.1673 45.8333H25.834C26.2942 45.8333 26.6673 45.4602 26.6673 45C26.6673 44.5398 26.2942 44.1667 25.834 44.1667H24.1673Z" fill="#FF6600"/>
<path d="M29.1673 44.1667C28.7071 44.1667 28.334 44.5398 28.334 45C28.334 45.4602 28.7071 45.8333 29.1673 45.8333H30.834C31.2942 45.8333 31.6673 45.4602 31.6673 45C31.6673 44.5398 31.2942 44.1667 30.834 44.1667H29.1673Z" fill="#FF6600"/>
<path d="M34.1654 44.1667C33.7051 44.1667 33.332 44.5398 33.332 45C33.332 45.4602 33.7051 45.8333 34.1654 45.8333H35.832C36.2923 45.8333 36.6654 45.4602 36.6654 45C36.6654 44.5398 36.2923 44.1667 35.832 44.1667H34.1654Z" fill="#FF6600"/>
<path d="M5.0013 33.3333C4.54107 33.3333 4.16797 33.7064 4.16797 34.1667V35.8333C4.16797 36.2936 4.54107 36.6667 5.0013 36.6667C5.46154 36.6667 5.83464 36.2936 5.83464 35.8333V34.1667C5.83464 33.7064 5.46154 33.3333 5.0013 33.3333Z" fill="#FF6600"/>
<path d="M5.83464 29.1667C5.83464 28.7064 5.46154 28.3333 5.0013 28.3333C4.54107 28.3333 4.16797 28.7064 4.16797 29.1667V30.8333C4.16797 31.2936 4.54107 31.6667 5.0013 31.6667C5.46154 31.6667 5.83464 31.2936 5.83464 30.8333V29.1667Z" fill="#FF6600"/>
<path d="M5.83464 24.1667C5.83464 23.7064 5.46154 23.3333 5.0013 23.3333C4.54107 23.3333 4.16797 23.7064 4.16797 24.1667V25.8333C4.16797 26.2936 4.54107 26.6667 5.0013 26.6667C5.46154 26.6667 5.83464 26.2936 5.83464 25.8333V24.1667Z" fill="#FF6600"/>
<path d="M5.83464 19.1667C5.83464 18.7064 5.46154 18.3333 5.0013 18.3333C4.54107 18.3333 4.16797 18.7064 4.16797 19.1667V20.8333C4.16797 21.2936 4.54107 21.6667 5.0013 21.6667C5.46154 21.6667 5.83464 21.2936 5.83464 20.8333V19.1667Z" fill="#FF6600"/>
<path d="M5.83464 14.1667C5.83464 13.7064 5.46154 13.3333 5.0013 13.3333C4.54107 13.3333 4.16797 13.7064 4.16797 14.1667V15.8333C4.16797 16.2936 4.54107 16.6667 5.0013 16.6667C5.46154 16.6667 5.83464 16.2936 5.83464 15.8333V14.1667Z" fill="#FF6600"/>
<path d="M44.9993 33.3333C44.5391 33.3333 44.166 33.7064 44.166 34.1667V35.8333C44.166 36.2936 44.5391 36.6667 44.9993 36.6667C45.4596 36.6667 45.8327 36.2936 45.8327 35.8333V34.1667C45.8327 33.7064 45.4596 33.3333 44.9993 33.3333Z" fill="#FF6600"/>
<path d="M45.8327 29.1667C45.8327 28.7064 45.4596 28.3333 44.9993 28.3333C44.5391 28.3333 44.166 28.7064 44.166 29.1667V30.8333C44.166 31.2936 44.5391 31.6667 44.9993 31.6667C45.4596 31.6667 45.8327 31.2936 45.8327 30.8333V29.1667Z" fill="#FF6600"/>
<path d="M45.8327 24.1667C45.8327 23.7064 45.4596 23.3333 44.9993 23.3333C44.5391 23.3333 44.166 23.7064 44.166 24.1667V25.8333C44.166 26.2936 44.5391 26.6667 44.9993 26.6667C45.4596 26.6667 45.8327 26.2936 45.8327 25.8333V24.1667Z" fill="#FF6600"/>
<path d="M45.8327 19.1667C45.8327 18.7064 45.4596 18.3333 44.9993 18.3333C44.5391 18.3333 44.166 18.7064 44.166 19.1667V20.8333C44.166 21.2936 44.5391 21.6667 44.9993 21.6667C45.4596 21.6667 45.8327 21.2936 45.8327 20.8333V19.1667Z" fill="#FF6600"/>
<path d="M44.0655 4.75583C44.3907 4.4303 44.3905 3.90283 44.0651 3.57754C43.7396 3.25225 43.2122 3.25225 42.8868 3.57754C42.5614 3.90283 42.5612 4.4303 42.8863 4.75583C43.0426 4.91231 43.2547 5.00024 43.4759 5.00024C43.6971 5.00024 43.9092 4.91231 44.0655 4.75583Z" fill="#FF6600"/>
<path d="M34.6375 13.005C34.3121 12.6797 33.7846 12.6797 33.4592 13.005L22.2642 24.2017C22.0476 24.4109 21.9607 24.7208 22.0369 25.0121C22.1132 25.3035 22.3407 25.531 22.6321 25.6073C22.9235 25.6835 23.2333 25.5967 23.4425 25.38L34.6375 14.1842C34.794 14.0279 34.8819 13.8158 34.8819 13.5946C34.8819 13.3734 34.794 13.1613 34.6375 13.005Z" fill="#FF6600"/>
<path d="M35.8155 15.3633L24.6197 26.5584C24.403 26.7676 24.3162 27.0774 24.3924 27.3688C24.4687 27.6601 24.6962 27.8877 24.9876 27.9639C25.2789 28.0402 25.5888 27.9533 25.798 27.7367L36.9947 16.5417C37.3201 16.2161 37.3199 15.6883 36.9943 15.3629C36.6686 15.0375 36.1409 15.0377 35.8155 15.3633Z" fill="#FF6600"/>
<path d="M12.2458 37.755C12.5576 38.0678 12.9809 38.244 13.4225 38.245C13.6469 38.2449 13.869 38.199 14.075 38.11L24.3533 33.8092C24.3733 33.8008 24.6033 33.6425 24.6208 33.6292L24.6267 33.6242L44.6558 13.5942L48.78 9.46999C50.4044 7.84168 50.4044 5.20581 48.78 3.57749L46.4233 1.22083C44.795 -0.403565 42.1592 -0.403565 40.5308 1.22083L36.4067 5.34499L16.3783 25.3725C16.3087 25.4577 16.2468 25.5489 16.1933 25.645L11.8933 35.9167C11.621 36.5436 11.7609 37.2733 12.2458 37.755ZM16.9608 33.04C16.4974 32.5815 15.9609 32.2033 15.3733 31.9208L17.6433 26.4958C17.969 26.2421 18.4323 26.2688 18.7267 26.5583C19.052 26.8837 19.052 27.4112 18.7267 27.7367C18.4008 28.063 18.4012 28.5916 18.7275 28.9175C19.0538 29.2433 19.5825 29.243 19.9083 28.9167C20.2376 28.6016 20.7566 28.6016 21.0858 28.9167C21.2421 29.0729 21.33 29.2848 21.33 29.5058C21.3309 29.7268 21.2429 29.9388 21.0858 30.0942C20.76 30.4195 20.7596 30.9475 21.085 31.2733C21.4104 31.5992 21.9383 31.5996 22.2642 31.2742C22.5718 30.9701 23.062 30.955 23.3878 31.2394C23.7137 31.5239 23.7648 32.0116 23.505 32.3575L18.0792 34.625C17.7967 34.0384 17.4188 33.5028 16.9608 33.04ZM41.12 14.7733L38.7633 12.4167C38.5543 12.1999 38.2445 12.1128 37.9531 12.1889C37.6617 12.2649 37.434 12.4923 37.3575 12.7836C37.281 13.0749 37.3677 13.3848 37.5842 13.5942L39.9408 15.9517L25.1017 30.7917C24.7219 29.9584 23.9073 29.4081 22.9925 29.3667C22.9222 28.0944 21.9064 27.0786 20.6342 27.0083C20.592 26.0938 20.0419 25.2796 19.2092 24.8992L34.0492 10.0592L35.2275 11.2375C35.438 11.4481 35.7449 11.5305 36.0325 11.4535C36.3202 11.3765 36.5449 11.1519 36.6221 10.8643C36.6993 10.5767 36.6172 10.2698 36.4067 10.0592L35.2275 8.88083L36.9958 7.11249L38.7617 8.87833L42.8842 13.0008L41.12 14.7733ZM41.7092 2.39916C42.178 1.93023 42.814 1.66678 43.4771 1.66678C44.1402 1.66678 44.7762 1.93023 45.245 2.39916L47.6017 4.75583C48.0706 5.22468 48.3341 5.86063 48.3341 6.52374C48.3341 7.18686 48.0706 7.82281 47.6017 8.29166L44.0667 11.8267L40.5308 8.29166L41.7092 7.11249C41.9258 6.90326 42.0127 6.59343 41.9364 6.30207C41.8602 6.01071 41.6326 5.78318 41.3413 5.70691C41.0499 5.63065 40.7401 5.71753 40.5308 5.93416L39.3525 7.11249L38.1742 5.93416L41.7092 2.39916ZM14.7292 33.4608C15.5121 33.8521 16.1471 34.4866 16.5392 35.2692L13.4283 36.5692L14.7292 33.4608Z" fill="#FF6600"/>
</g>
<defs>
<clipPath id="clip0">
<rect width="50" height="50" fill="white"/>
</clipPath>
</defs>
</svg>
