<svg width="50" height="50" viewBox="0 0 50 50" fill="none" xmlns="http://www.w3.org/2000/svg">
<path d="M46.25 50H3.75C1.6825 50 0 48.3175 0 46.25V3.75C0 1.6825 1.6825 0 3.75 0H46.25C48.3175 0 50 1.6825 50 3.75V46.25C50 48.3175 48.3175 50 46.25 50ZM3.75 1.66667C2.60167 1.66667 1.66667 2.60083 1.66667 3.75V46.25C1.66667 47.3992 2.60167 48.3333 3.75 48.3333H46.25C47.3992 48.3333 48.3333 47.3992 48.3333 46.25V3.75C48.3333 2.60083 47.3983 1.66667 46.25 1.66667H3.75Z" fill="#FF6600"/>
<path d="M7.50065 8.33333H4.16732C3.70732 8.33333 3.33398 7.96083 3.33398 7.49999V4.16666C3.33398 3.70583 3.70732 3.33333 4.16732 3.33333H7.50065C7.96065 3.33333 8.33399 3.70583 8.33399 4.16666V7.49999C8.33399 7.96083 7.96065 8.33333 7.50065 8.33333ZM5.00065 6.66666H6.66732V4.99999H5.00065V6.66666Z" fill="#FF6600"/>
<path d="M14.1667 8.33333H10.8333C10.3733 8.33333 10 7.96083 10 7.49999V4.16666C10 3.70583 10.3733 3.33333 10.8333 3.33333H14.1667C14.6267 3.33333 15 3.70583 15 4.16666V7.49999C15 7.96083 14.6267 8.33333 14.1667 8.33333ZM11.6667 6.66666H13.3333V4.99999H11.6667V6.66666Z" fill="#FF6600"/>
<path d="M20.8346 8.33333H17.5013C17.0413 8.33333 16.668 7.96083 16.668 7.49999V4.16666C16.668 3.70583 17.0413 3.33333 17.5013 3.33333H20.8346C21.2946 3.33333 21.668 3.70583 21.668 4.16666V7.49999C21.668 7.96083 21.2946 8.33333 20.8346 8.33333ZM18.3346 6.66666H20.0013V4.99999H18.3346V6.66666Z" fill="#FF6600"/>
<path d="M49.1667 11.6667H0.833333C0.373333 11.6667 0 11.2942 0 10.8333V3.75C0 1.6825 1.6825 0 3.75 0H46.25C48.3175 0 50 1.6825 50 3.75V10.8333C50 11.2942 49.6267 11.6667 49.1667 11.6667ZM1.66667 10H48.3333V3.75C48.3333 2.60083 47.3983 1.66667 46.25 1.66667H3.75C2.60167 1.66667 1.66667 2.60083 1.66667 3.75V10Z" fill="#FF6600"/>
<path d="M44.1654 23.3333H34.1654C33.7054 23.3333 33.332 22.9608 33.332 22.5V15.8333C33.332 15.3725 33.7054 15 34.1654 15H44.1654C44.6254 15 44.9987 15.3725 44.9987 15.8333V22.5C44.9987 22.9608 44.6254 23.3333 44.1654 23.3333ZM34.9987 21.6667H43.332V16.6667H34.9987V21.6667Z" fill="#FF6600"/>
<path d="M29.9994 23.3333H19.9993C19.5393 23.3333 19.166 22.9608 19.166 22.5V15.8333C19.166 15.3725 19.5393 15 19.9993 15H29.9994C30.4594 15 30.8327 15.3725 30.8327 15.8333V22.5C30.8327 22.9608 30.4594 23.3333 29.9994 23.3333ZM20.8327 21.6667H29.166V16.6667H20.8327V21.6667Z" fill="#FF6600"/>
<path d="M15.8333 34.1667H5.83333C5.37333 34.1667 5 33.7942 5 33.3333V26.6667C5 26.2058 5.37333 25.8333 5.83333 25.8333H15.8333C16.2933 25.8333 16.6667 26.2058 16.6667 26.6667V33.3333C16.6667 33.7942 16.2933 34.1667 15.8333 34.1667ZM6.66667 32.5H15V27.5H6.66667V32.5Z" fill="#FF6600"/>
<path d="M44.1654 34.1667H34.1654C33.7054 34.1667 33.332 33.7942 33.332 33.3333V26.6667C33.332 26.2058 33.7054 25.8333 34.1654 25.8333H44.1654C44.6254 25.8333 44.9987 26.2058 44.9987 26.6667V33.3333C44.9987 33.7942 44.6254 34.1667 44.1654 34.1667ZM34.9987 32.5H43.332V27.5H34.9987V32.5Z" fill="#FF6600"/>
<path d="M29.9994 34.1667H19.9993C19.5393 34.1667 19.166 33.7942 19.166 33.3333V26.6667C19.166 26.2058 19.5393 25.8333 19.9993 25.8333H29.9994C30.4594 25.8333 30.8327 26.2058 30.8327 26.6667V33.3333C30.8327 33.7942 30.4594 34.1667 29.9994 34.1667ZM20.8327 32.5H29.166V27.5H20.8327V32.5Z" fill="#FF6600"/>
<path d="M15.8333 45H5.83333C5.37333 45 5 44.6275 5 44.1667V37.5C5 37.0392 5.37333 36.6667 5.83333 36.6667H15.8333C16.2933 36.6667 16.6667 37.0392 16.6667 37.5V44.1667C16.6667 44.6275 16.2933 45 15.8333 45ZM6.66667 43.3333H15V38.3333H6.66667V43.3333Z" fill="#FF6600"/>
<path d="M44.1654 45H34.1654C33.7054 45 33.332 44.6275 33.332 44.1667V37.5C33.332 37.0392 33.7054 36.6667 34.1654 36.6667H44.1654C44.6254 36.6667 44.9987 37.0392 44.9987 37.5V44.1667C44.9987 44.6275 44.6254 45 44.1654 45ZM34.9987 43.3333H43.332V38.3333H34.9987V43.3333Z" fill="#FF6600"/>
<path d="M29.9994 45H19.9993C19.5393 45 19.166 44.6275 19.166 44.1667V37.5C19.166 37.0392 19.5393 36.6667 19.9993 36.6667H29.9994C30.4594 36.6667 30.8327 37.0392 30.8327 37.5V44.1667C30.8327 44.6275 30.4594 45 29.9994 45ZM20.8327 43.3333H29.166V38.3333H20.8327V43.3333Z" fill="#FF6600"/>
<path d="M10.8333 23.3333C10.3733 23.3333 10 22.9608 10 22.5V15.8333C10 15.3725 10.3733 15 10.8333 15C11.2933 15 11.6667 15.3725 11.6667 15.8333V22.5C11.6667 22.9608 11.2933 23.3333 10.8333 23.3333Z" fill="#FF6600"/>
<path d="M14.166 20H7.49935C7.03935 20 6.66602 19.6275 6.66602 19.1667C6.66602 18.7058 7.03935 18.3333 7.49935 18.3333H14.166C14.626 18.3333 14.9993 18.7058 14.9993 19.1667C14.9993 19.6275 14.626 20 14.166 20Z" fill="#FF6600"/>
</svg>
