<svg width="54" height="54" viewBox="0 0 54 54" fill="none" xmlns="http://www.w3.org/2000/svg">
<g clip-path="url(#clip0)">
<path d="M45.879 23.4341C45.5021 22.3765 44.4999 21.6711 43.3771 21.673C42.2554 21.6765 41.2572 22.3854 40.8845 23.4435H35.4099V19.9026H38.9509C39.4396 19.9027 39.836 19.5065 39.8361 19.0177C39.8361 19.0176 39.8361 19.0174 39.8361 19.0173V15.3132C41.219 14.8243 41.9438 13.307 41.4549 11.9241C40.966 10.5412 39.4487 9.81639 38.0657 10.3053C36.6828 10.7941 35.9581 12.3115 36.447 13.6944C36.7143 14.4508 37.3093 15.0458 38.0656 15.3132V18.1322H35.4099V16.3617C35.41 15.8729 35.0139 15.4765 34.5251 15.4764C34.525 15.4764 34.5248 15.4764 34.5246 15.4764H32.7542V10.8869C34.137 10.398 34.8618 8.88069 34.3729 7.49771C33.8841 6.11485 32.3668 5.39005 30.9838 5.87893C29.6009 6.36781 28.8761 7.88512 29.365 9.26809C29.6323 10.0244 30.2273 10.6194 30.9837 10.8869V15.4763H27.4427V1.34348C27.4428 0.854716 27.0466 0.458347 26.5579 0.458237C26.5578 0.458237 26.5575 0.458237 26.5574 0.458237C15.6367 0.458237 7.08203 8.36492 7.08203 18.4579C7.08203 23.2524 8.9852 29.6004 12.0495 35.0234C12.5998 35.9969 13.3177 37.0204 14.0776 38.1045C15.6844 40.395 17.4726 42.9707 17.667 45.2128C16.9865 45.6939 16.5882 46.4807 16.6036 47.314C16.6062 47.9125 16.8129 48.4923 17.1895 48.9575C16.6656 49.4745 16.3726 50.1812 16.3771 50.9173C16.3787 52.3833 17.5668 53.5714 19.0328 53.573H34.082C35.5581 53.5638 36.7473 52.3599 36.7381 50.8838C36.738 50.8742 36.7379 50.8646 36.7378 50.855C36.7372 50.1349 36.443 49.4463 35.923 48.9481C36.3045 48.465 36.5118 47.8673 36.5113 47.2517C36.5086 45.8496 35.3698 44.7151 33.9677 44.7178C33.9303 44.7179 33.8929 44.7188 33.8555 44.7204H27.4427V27.8697H29.2132V30.5254C29.2131 31.0142 29.6092 31.4105 30.098 31.4106C30.0981 31.4106 30.0983 31.4106 30.0984 31.4106H32.7542V32.459C31.3713 32.9479 30.6466 34.4653 31.1356 35.848C31.6246 37.2308 33.1419 37.9556 34.5246 37.4666C35.9075 36.9777 36.6322 35.4603 36.1432 34.0776C35.8759 33.3212 35.2809 32.7263 34.5246 32.459V30.5254C34.5248 30.0366 34.1286 29.6403 33.6398 29.6402C33.6397 29.6402 33.6395 29.6402 33.6394 29.6402H30.9837V27.8697H34.5246C35.0134 27.8698 35.4098 27.4736 35.4099 26.9849C35.4099 26.9847 35.4099 26.9845 35.4099 26.9844V25.2139H40.8846C41.3761 26.5931 42.8925 27.3127 44.2718 26.8212C45.6509 26.3298 46.3705 24.8133 45.879 23.4341ZM38.9509 11.9352C39.4398 11.9352 39.8361 12.3316 39.8361 12.8205C39.8361 13.3094 39.4398 13.7057 38.9509 13.7057C38.462 13.7057 38.0656 13.3094 38.0656 12.8205C38.0661 12.3318 38.4622 11.9358 38.9509 11.9352ZM15.5273 37.0878C14.7924 36.04 14.0987 35.0511 13.5908 34.152C10.7125 29.0575 8.85252 22.8971 8.85252 18.4579C8.85252 9.62972 16.171 2.65663 25.6722 2.24776V8.43209C25.4372 8.44968 25.1974 8.47104 24.9409 8.50247C24.5651 8.54817 24.26 8.82791 24.1819 9.19838L23.9121 10.4813C23.6899 10.5341 23.4684 10.5938 23.2473 10.6603L22.365 9.67641C22.1123 9.39369 21.7075 9.30361 21.3587 9.45256C20.3679 9.8798 19.4328 10.4259 18.5737 11.0786C18.2713 11.3066 18.1475 11.7017 18.2656 12.0616L18.6719 13.2996C18.5046 13.457 18.3417 13.6203 18.1839 13.7872L16.9472 13.3808C16.5875 13.2643 16.1933 13.3877 15.9643 13.6886C15.3106 14.5478 14.7641 15.4834 14.3368 16.4749C14.1881 16.8237 14.2782 17.2283 14.5607 17.4812L15.545 18.363C15.4788 18.5818 15.4196 18.801 15.3674 19.0208L13.9907 19.2957C13.5769 19.3783 13.2789 19.7417 13.2789 20.1637V23.1824C13.2789 23.6044 13.5769 23.9678 13.9908 24.0504L15.3675 24.3252C15.4198 24.5448 15.479 24.7641 15.5451 24.9831L14.5605 25.8649C14.2783 26.118 14.1883 26.5224 14.3366 26.8712C14.764 27.8626 15.3104 28.7983 15.964 29.6575C16.1929 29.9587 16.5872 30.0821 16.947 29.9653L18.1837 29.5589C18.3419 29.7258 18.5044 29.8891 18.6717 30.0465L18.2653 31.2827C18.1474 31.6425 18.271 32.0374 18.5731 32.2657C19.4321 32.9194 20.3677 33.4661 21.3589 33.8935C21.7077 34.0416 22.1121 33.9516 22.3652 33.6697L23.2475 32.6858C23.4684 32.7525 23.69 32.8121 23.9123 32.8648L24.1817 34.1468C24.2595 34.5176 24.5646 34.7978 24.9406 34.8436C25.1975 34.8751 25.4374 34.8964 25.6724 34.914V44.7205H19.3993C19.0374 42.1116 17.1894 39.4577 15.5273 37.0878ZM18.5902 21.6729C18.5959 25.7278 21.6429 29.1332 25.6722 29.5879V32.6322L25.5257 31.9354C25.4518 31.5825 25.1713 31.3096 24.8164 31.2455C24.2917 31.15 23.7758 31.011 23.2742 30.8297C23.178 30.7955 23.0767 30.778 22.9746 30.7778C22.723 30.7778 22.4832 30.885 22.3154 31.0726L21.483 32.0011C21.0217 31.7706 20.5765 31.5091 20.1504 31.2188L20.5347 30.0491C20.6472 29.7063 20.5406 29.3297 20.2653 29.0965C19.8571 28.7509 19.4781 28.3721 19.1324 27.964C18.8986 27.6906 18.5232 27.5848 18.181 27.696L17.0118 28.0808C16.7212 27.6545 16.4598 27.2092 16.2291 26.7477L17.1583 25.9153C17.4263 25.6746 17.5222 25.2957 17.4008 24.9565C17.2198 24.4548 17.0807 23.9389 16.9849 23.4143C16.9203 23.0566 16.6435 22.7747 16.2868 22.7037L15.0492 22.4563V20.8898L16.2868 20.6426C16.6433 20.5717 16.9203 20.2897 16.9849 19.932C17.0807 19.407 17.2198 18.8908 17.4007 18.3888C17.5223 18.0495 17.4262 17.6705 17.1578 17.4301L16.2293 16.5984C16.4602 16.1372 16.7216 15.6918 17.0116 15.2653L18.1812 15.6501C18.5234 15.7612 18.8987 15.6555 19.1327 15.382C19.4792 14.9736 19.8585 14.5941 20.2664 14.2469C20.5406 14.0142 20.6467 13.6386 20.5344 13.2968L20.1506 12.1272C20.5767 11.837 21.0218 11.5756 21.4828 11.3449L22.3152 12.2734C22.556 12.5412 22.9347 12.6371 23.274 12.5163C23.7756 12.3349 24.2914 12.1958 24.8162 12.1004C25.1709 12.0367 25.4514 11.7642 25.5255 11.4114L25.6722 10.7146V13.758C21.6429 14.2127 18.5959 17.6181 18.5902 21.6729ZM25.6722 15.5469V27.7989C22.2889 27.3146 19.9388 24.1792 20.4231 20.7959C20.8127 18.0746 22.9508 15.9365 25.6722 15.5469ZM34.9673 50.9173C34.9668 51.4059 34.5707 51.8021 34.082 51.8025H19.0328C18.535 51.7941 18.1382 51.3837 18.1466 50.8858C18.1468 50.8755 18.1472 50.8652 18.1476 50.855C18.148 50.3663 18.5442 49.9702 19.0328 49.9697H34.082C34.5799 49.9781 34.9767 50.3885 34.9683 50.8864C34.9682 50.8967 34.9678 50.907 34.9673 50.9173ZM33.8555 46.491C34.3015 46.4499 34.6964 46.7782 34.7374 47.2241C34.7402 47.254 34.7413 47.284 34.7408 47.314C34.7403 47.8026 34.3442 48.1988 33.8555 48.1992H19.2594C18.7615 48.1908 18.3647 47.7805 18.3731 47.2826C18.3733 47.2723 18.3737 47.262 18.3741 47.2517C18.393 46.8104 18.7662 46.468 19.2075 46.487C19.2248 46.4878 19.2421 46.4891 19.2594 46.4909H33.8555V46.491ZM33.6394 34.0664C34.1283 34.0664 34.5246 34.4627 34.5246 34.9516C34.5246 35.4405 34.1283 35.8369 33.6394 35.8369C33.1505 35.8369 32.7542 35.4405 32.7542 34.9516C32.7546 34.463 33.1507 34.0669 33.6394 34.0664ZM31.8689 7.509C32.3578 7.509 32.7542 7.90537 32.7542 8.39425C32.7542 8.88312 32.3578 9.27949 31.8689 9.27949C31.38 9.27949 30.9837 8.88312 30.9837 8.39425C30.9841 7.90559 31.3803 7.50955 31.8689 7.509ZM33.6394 26.0992H27.4427V17.2467H33.6394V26.0992ZM43.3771 25.2139C42.8882 25.2139 42.4919 24.8175 42.4919 24.3287C42.4919 23.8398 42.8882 23.4434 43.3771 23.4434C43.866 23.4434 44.2624 23.8398 44.2624 24.3287C44.2619 24.8174 43.8658 25.2135 43.3771 25.2139Z" fill="#FF6600"/>
<path d="M35.0944 40.9236C34.7822 41.4817 34.506 42.0592 34.2676 42.6526L35.9136 43.3045C36.1245 42.7811 36.3686 42.2717 36.6445 41.7795L35.0944 40.9236Z" fill="#FF6600"/>
<path d="M37.0856 37.8053C36.7377 38.305 36.3906 38.8133 36.0586 39.3268L37.5447 40.2882C37.8663 39.792 38.2021 39.3009 38.5388 38.8168L37.0856 37.8053Z" fill="#FF6600"/>
<path d="M39.1014 34.86C38.8027 35.3337 38.4699 35.8239 38.1211 36.3271L39.5752 37.3368C39.9405 36.8112 40.288 36.2985 40.5997 35.8023L39.1014 34.86Z" fill="#FF6600"/>
<path d="M40.7606 31.7746C40.5068 32.3054 40.2416 32.8301 39.9648 33.3489L41.5261 34.184C41.8157 33.642 42.0931 33.093 42.3582 32.5371L40.7606 31.7746Z" fill="#FF6600"/>
<path d="M42.143 28.5258C41.9373 29.073 41.718 29.6211 41.4863 30.1649L43.116 30.8582C43.3572 30.2902 43.5852 29.7203 43.8003 29.1483L42.143 28.5258Z" fill="#FF6600"/>
<path d="M46.0317 18.2815L44.2612 18.2954L44.2621 18.4579C44.2621 18.9516 44.2392 19.4763 44.1934 20.0157L45.9578 20.1645C46.0075 19.5758 46.0326 19.0017 46.0326 18.4579L46.0317 18.2815Z" fill="#FF6600"/>
<path d="M45.5812 14.5132L43.8574 14.9161C43.9868 15.4695 44.0852 16.0297 44.1522 16.594L45.9106 16.3848C45.8355 15.7554 45.7255 15.1305 45.5812 14.5132Z" fill="#FF6600"/>
<path d="M44.3084 10.9359L42.7168 11.7105C42.9657 12.2218 43.1862 12.7465 43.3773 13.2821L45.0449 12.6891C44.8322 12.0915 44.5863 11.5061 44.3084 10.9359Z" fill="#FF6600"/>
<path d="M42.2831 7.73029L40.8965 8.83164C41.2508 9.27781 41.5812 9.74234 41.8863 10.2235L43.3827 9.2777C43.0439 8.74279 42.6768 8.22624 42.2831 7.73029Z" fill="#FF6600"/>
<path d="M39.6301 5.02875L38.502 6.39291C38.942 6.75697 39.3632 7.14338 39.7636 7.55048L41.0258 6.30903C40.5826 5.85878 40.1167 5.43153 39.6301 5.02875Z" fill="#FF6600"/>
<path d="M36.4982 2.91855L35.6562 4.47636C36.1619 4.74957 36.6569 5.04867 37.1272 5.36504L38.1154 3.89542C37.5978 3.54796 37.0541 3.21942 36.4982 2.91855Z" fill="#FF6600"/>
<path d="M33.0282 1.44981L32.4922 3.13731C33.0437 3.31193 33.5862 3.51255 34.1053 3.73297L34.7978 2.10423C34.2277 1.86123 33.6321 1.64169 33.0282 1.44981Z" fill="#FF6600"/>
<path d="M29.3554 0.637161L29.1289 2.39382C29.6999 2.4673 30.2713 2.56678 30.8273 2.69038L31.2102 0.961383C30.603 0.827378 29.9787 0.718383 29.3554 0.637161Z" fill="#FF6600"/>
<path d="M3.54002 48.2303H1.76953V50.0008H3.54002V48.2303Z" fill="#FF6600"/>
<path d="M3.54002 51.7713H1.76953V53.5418H3.54002V51.7713Z" fill="#FF6600"/>
<path d="M5.31151 50.0008H3.54102V51.7713H5.31151V50.0008Z" fill="#FF6600"/>
<path d="M1.77049 50.0008H0V51.7713H1.77049V50.0008Z" fill="#FF6600"/>
<path d="M52.2295 0.427017H50.459V2.19751H52.2295V0.427017Z" fill="#FF6600"/>
<path d="M52.2295 3.968H50.459V5.73849H52.2295V3.968Z" fill="#FF6600"/>
<path d="M54.001 2.19751H52.2305V3.968H54.001V2.19751Z" fill="#FF6600"/>
<path d="M50.4599 2.19751H48.6895V3.968H50.4599V2.19751Z" fill="#FF6600"/>
</g>
<defs>
<clipPath id="clip0">
<rect width="54" height="54" fill="white"/>
</clipPath>
</defs>
</svg>
