<svg width="54" height="54" viewBox="0 0 54 54" fill="none" xmlns="http://www.w3.org/2000/svg">
<g clip-path="url(#clip0)">
<rect width="54" height="54" fill="white"/>
<path d="M53.8959 29.4943C53.4111 24.6176 51.2324 20.02 47.7609 16.5485C44.7942 13.5819 41.1631 11.6755 37.3423 10.8279V8.14808C38.9029 7.75984 40.0628 6.34727 40.0628 4.66829C40.0628 2.69093 38.4542 1.0823 36.4768 1.0823H28.883C26.9056 1.0823 25.297 2.69093 25.297 4.66829C25.297 6.34717 26.4569 7.75973 28.0174 8.14808V10.8354C24.2083 11.6866 20.5892 13.5903 17.631 16.5486C16.9836 17.196 16.3866 17.8751 15.8402 18.5809C15.8137 18.5789 15.7872 18.5769 15.7602 18.5769H8.2443C7.6619 18.5769 7.1896 19.0491 7.1896 19.6316C7.1896 20.2141 7.6619 20.6863 8.2443 20.6863H14.405C13.6317 21.9809 13.0082 23.3406 12.5336 24.7402H1.0547C0.472296 24.7402 0 25.2123 0 25.7949C0 26.3774 0.472296 26.8496 1.0547 26.8496H11.9376C11.6336 28.1839 11.4591 29.5418 11.4141 30.9035H6.75011C6.1677 30.9035 5.6954 31.3757 5.6954 31.9582C5.6954 32.5407 6.1677 33.0129 6.75011 33.0129H11.4478C11.5368 34.3781 11.7563 35.7362 12.1063 37.0669H5.27352C4.69111 37.0669 4.21882 37.5391 4.21882 38.1216C4.21882 38.7041 4.69111 39.1763 5.27352 39.1763H12.7794C13.8141 41.9134 15.4311 44.4787 17.631 46.6786C21.1058 50.1535 25.7081 52.3327 30.5899 52.815C31.2866 52.8838 31.9839 52.9178 32.6802 52.9178C36.7959 52.9178 40.8592 51.7268 44.3071 49.4815C44.7952 49.1636 44.9332 48.5102 44.6153 48.0221C44.2975 47.534 43.6441 47.3959 43.156 47.7138C35.6088 52.6284 25.5013 51.5658 19.1225 45.1871C11.6381 37.7027 11.6381 25.5247 19.1225 18.0403C26.6068 10.556 38.7847 10.556 46.2692 18.0403C52.6395 24.4107 53.708 34.5096 48.8096 42.053C48.4923 42.5415 48.6312 43.1948 49.1197 43.512C49.6084 43.8292 50.2615 43.6903 50.5786 43.2018C53.1958 39.1712 54.3739 34.3033 53.8959 29.4943ZM27.4064 4.6684C27.4064 3.85417 28.0687 3.19181 28.883 3.19181H36.4768C37.2911 3.19181 37.9534 3.85417 37.9534 4.6684C37.9534 5.48263 37.2911 6.14498 36.4768 6.14498H36.2876H29.0721H28.883C28.0687 6.14498 27.4064 5.48252 27.4064 4.6684ZM30.1268 10.4727V8.25439H35.2329V10.469C33.5374 10.2673 31.822 10.2686 30.1268 10.4727Z" fill="#FF6600"/>
<path d="M47.0156 44.8776C46.7372 44.8776 46.4661 44.9905 46.2701 45.1866C46.0728 45.3828 45.9609 45.6549 45.9609 45.9323C45.9609 46.2097 46.0728 46.4818 46.2701 46.678C46.4661 46.8752 46.7373 46.987 47.0156 46.987C47.293 46.987 47.5641 46.8752 47.7613 46.678C47.9575 46.4818 48.0703 46.2097 48.0703 45.9323C48.0703 45.6549 47.9576 45.3828 47.7613 45.1866C47.5641 44.9905 47.2929 44.8776 47.0156 44.8776Z" fill="#FF6600"/>
<path d="M32.6955 15.252C23.6738 15.252 16.334 22.5916 16.334 31.6135C16.334 40.6353 23.6738 47.975 32.6955 47.975C41.7172 47.975 49.057 40.6353 49.057 31.6135C49.057 22.5916 41.7172 15.252 32.6955 15.252ZM32.6955 45.8656C24.8368 45.8656 18.4434 39.4721 18.4434 31.6135C18.4434 23.7549 24.8368 17.3614 32.6955 17.3614C40.5542 17.3614 46.9476 23.7549 46.9476 31.6135C46.9476 39.4721 40.5542 45.8656 32.6955 45.8656Z" fill="#FF6600"/>
<path d="M39.3672 23.4503L34.1433 28.6741C33.7064 28.4581 33.215 28.3361 32.6956 28.3361C32.176 28.3361 31.6848 28.4581 31.2479 28.6741L28.9099 26.3362C28.498 25.9243 27.8303 25.9243 27.4183 26.3362C27.0064 26.748 27.0064 27.4159 27.4183 27.8277L29.7562 30.1657C29.5401 30.6026 29.4182 31.094 29.4182 31.6134C29.4182 33.4205 30.8884 34.8908 32.6956 34.8908C34.5028 34.8908 35.973 33.4205 35.973 31.6134C35.973 31.094 35.8509 30.6026 35.6349 30.1657L40.7055 25.0951L40.8588 24.9419C41.2706 24.53 41.2706 23.8622 40.8588 23.4503C40.4469 23.0384 39.7793 23.0384 39.3672 23.4503ZM32.6956 32.7815C32.0516 32.7815 31.5276 32.2575 31.5276 31.6135C31.5276 30.9695 32.0516 30.4455 32.6956 30.4455C33.3396 30.4455 33.8636 30.9695 33.8636 31.6135C33.8636 32.2575 33.3396 32.7815 32.6956 32.7815Z" fill="#FF6600"/>
<path d="M43.9733 30.5717H42.9961C42.4137 30.5717 41.9414 31.0438 41.9414 31.6263C41.9414 32.2088 42.4137 32.681 42.9961 32.681H43.9733C44.5557 32.681 45.0279 32.2088 45.0279 31.6263C45.0279 31.0438 44.5557 30.5717 43.9733 30.5717Z" fill="#FF6600"/>
<path d="M22.397 30.5458H21.4199C20.8375 30.5458 20.3652 31.018 20.3652 31.6005C20.3652 32.183 20.8375 32.6552 21.4199 32.6552H22.397C22.9794 32.6552 23.4517 32.183 23.4517 31.6005C23.4517 31.018 22.9794 30.5458 22.397 30.5458Z" fill="#FF6600"/>
<path d="M32.709 22.3684C33.2914 22.3684 33.7637 21.8962 33.7637 21.3137V20.3366C33.7637 19.7541 33.2914 19.282 32.709 19.282C32.1266 19.282 31.6543 19.7541 31.6543 20.3366V21.3137C31.6543 21.8962 32.1266 22.3684 32.709 22.3684Z" fill="#FF6600"/>
<path d="M32.6836 40.8585C32.1012 40.8585 31.6289 41.3307 31.6289 41.9132V42.8903C31.6289 43.4728 32.1012 43.9449 32.6836 43.9449C33.266 43.9449 33.7383 43.4728 33.7383 42.8903V41.9132C33.7383 41.3307 33.266 40.8585 32.6836 40.8585Z" fill="#FF6600"/>
<path d="M1.05469 37.0665C0.777305 37.0665 0.505195 37.1793 0.309023 37.3755C0.112852 37.5717 0 37.8438 0 38.1212C0 38.3996 0.112746 38.6707 0.309023 38.8668C0.505301 39.063 0.777305 39.1759 1.05469 39.1759C1.33207 39.1759 1.60418 39.063 1.80025 38.8668C1.99642 38.6707 2.10938 38.3986 2.10938 38.1212C2.10938 37.8438 1.99652 37.5717 1.80025 37.3755C1.60418 37.1793 1.33207 37.0665 1.05469 37.0665Z" fill="#FF6600"/>
</g>
<defs>
<clipPath id="clip0">
<rect width="54" height="54" fill="white"/>
</clipPath>
</defs>
</svg>
