<svg width="60" height="60" viewBox="0 0 60 60" fill="none" xmlns="http://www.w3.org/2000/svg">
<g clip-path="url(#clip0)">
<rect width="60" height="60" fill="white"/>
<path d="M21.2135 16.7098L20.1988 17.0775C18.6327 17.6454 17.4643 19.0153 17.1494 20.6537L16.8051 22.4579C16.6333 23.3516 16.8672 24.2668 17.4472 24.9687C18.0274 25.6712 18.8829 26.0741 19.7939 26.0741H28.5896C29.4936 26.0741 30.3447 25.6765 30.9248 24.9832C31.5044 24.2905 31.7456 23.3836 31.5865 22.495L31.2654 20.7002C30.9678 19.0361 29.7956 17.6439 28.2058 17.067L27.1301 16.6771V15.0915C27.1301 15.047 27.1257 15.0036 27.1193 14.9609C27.9041 14.1619 28.3536 13.0724 28.3536 11.9577V9.59532C28.3536 7.2893 26.4774 5.41325 24.1713 5.41325C21.8652 5.41325 19.9887 7.2893 19.9887 9.59532V12.0313C19.9887 13.1772 20.4612 14.2233 21.2209 14.983C21.2164 15.0186 21.2135 15.0546 21.2135 15.0914V16.7098ZM29.5347 21.0096L29.8558 22.8046C29.9231 23.1797 29.8213 23.5625 29.5765 23.855C29.3313 24.148 28.9715 24.3162 28.5894 24.3162H19.7937C19.4087 24.3162 19.0473 24.146 18.8021 23.8492C18.5574 23.5529 18.4587 23.1668 18.5313 22.7886L18.8756 20.9844C19.074 19.9518 19.8106 19.088 20.7975 18.7302L21.4622 18.4894C21.4788 18.5065 21.4956 18.5237 21.5136 18.5395C22.271 19.2018 23.221 19.5329 24.1717 19.5328C25.1211 19.5328 26.0709 19.2023 26.8284 18.5414C26.8557 18.5176 26.8808 18.492 26.9047 18.4652L27.6058 18.7194C28.6083 19.0829 29.3472 19.9604 29.5347 21.0096ZM21.7465 9.59532C21.7465 8.25868 22.8341 7.17106 24.171 7.17106C25.2992 7.17106 26.2473 7.94684 26.5165 8.99215C26.4035 9.04735 26.2876 9.0995 26.1689 9.14696C25.0882 9.57961 24.2153 9.52219 23.9658 9.34735C23.5683 9.06868 23.0203 9.16477 22.7415 9.56227C22.4628 9.95977 22.559 10.5077 22.9564 10.7865C23.3857 11.0876 23.9683 11.2381 24.6333 11.2381C25.2374 11.2381 25.9094 11.1125 26.5956 10.8642V11.9575C26.5956 12.6293 26.3177 13.2872 25.8331 13.7624C25.6088 13.9825 25.3519 14.153 25.0759 14.2706C25.0565 14.278 25.0376 14.286 25.0189 14.2947C24.7354 14.4068 24.4326 14.4632 24.1231 14.4551C22.8125 14.4299 21.7465 13.3425 21.7465 12.0312V9.59532ZM24.0894 16.2128C24.1162 16.2132 24.1428 16.2135 24.1697 16.2135C24.5821 16.2135 24.9861 16.1515 25.3721 16.0325V17.4387C24.6396 17.8903 23.7031 17.8901 22.9715 17.438V16.0351C23.3271 16.1428 23.7017 16.2053 24.0894 16.2128Z" fill="#FF6600"/>
<path d="M10.3438 41.1215H37.7152C38.2007 41.1215 38.5941 40.7281 38.5941 40.2426C38.5941 39.7571 38.2007 39.3637 37.7152 39.3637H10.3438C9.85824 39.3637 9.46484 39.7571 9.46484 40.2426C9.46484 40.7281 9.85824 41.1215 10.3438 41.1215Z" fill="#FF6600"/>
<path d="M10.3438 45.8608H37.7152C38.2007 45.8608 38.5941 45.4674 38.5941 44.9819C38.5941 44.4964 38.2007 44.103 37.7152 44.103H10.3438C9.85824 44.103 9.46484 44.4964 9.46484 44.9819C9.46484 45.4674 9.85824 45.8608 10.3438 45.8608Z" fill="#FF6600"/>
<path d="M10.3438 50.5997H37.7152C38.2007 50.5997 38.5941 50.2063 38.5941 49.7208C38.5941 49.2353 38.2007 48.8419 37.7152 48.8419H10.3438C9.85824 48.8419 9.46484 49.2353 9.46484 49.7208C9.46484 50.2063 9.85824 50.5997 10.3438 50.5997Z" fill="#FF6600"/>
<path d="M10.3438 55.3389H37.7152C38.2007 55.3389 38.5941 54.9455 38.5941 54.46C38.5941 53.9745 38.2007 53.5811 37.7152 53.5811H10.3438C9.85824 53.5811 9.46484 53.9745 9.46484 54.46C9.46484 54.9455 9.85824 55.3389 10.3438 55.3389Z" fill="#FF6600"/>
<path d="M9.46484 30.7645C9.46484 31.25 9.85824 31.6434 10.3438 31.6434H37.7152C38.2007 31.6434 38.5941 31.25 38.5941 30.7645C38.5941 30.279 38.2007 29.8856 37.7152 29.8856H10.3438C9.85824 29.8856 9.46484 30.2791 9.46484 30.7645Z" fill="#FF6600"/>
<path d="M10.3438 36.3825H37.7152C38.2007 36.3825 38.5941 35.9891 38.5941 35.5036C38.5941 35.0181 38.2007 34.6247 37.7152 34.6247H10.3438C9.85824 34.6247 9.46484 35.0181 9.46484 35.5036C9.46484 35.9891 9.85824 36.3825 10.3438 36.3825Z" fill="#FF6600"/>
<path d="M7.09703 41.1249C7.5843 41.1249 7.97934 40.7299 7.97934 40.2427C7.97934 39.7555 7.5843 39.3605 7.09703 39.3605C6.60977 39.3605 6.21484 39.7554 6.21484 40.2427C6.21484 40.7299 6.60988 41.1249 7.09703 41.1249Z" fill="#FF6600"/>
<path d="M7.09703 31.6467C7.5843 31.6467 7.97934 31.2518 7.97934 30.7646C7.97934 30.2773 7.5843 29.8824 7.09703 29.8824C6.60977 29.8824 6.21484 30.2773 6.21484 30.7646C6.21484 31.2518 6.60988 31.6467 7.09703 31.6467Z" fill="#FF6600"/>
<path d="M7.09703 36.3858C7.5843 36.3858 7.97934 35.9908 7.97934 35.5036C7.97934 35.0163 7.5843 34.6214 7.09703 34.6214C6.60977 34.6214 6.21484 35.0163 6.21484 35.5036C6.21484 35.9908 6.60988 36.3858 7.09703 36.3858Z" fill="#FF6600"/>
<path d="M7.09703 45.8639C7.5843 45.8639 7.97934 45.469 7.97934 44.9817C7.97934 44.4944 7.5843 44.0995 7.09703 44.0995C6.60977 44.0995 6.21484 44.4944 6.21484 44.9817C6.21484 45.469 6.60988 45.8639 7.09703 45.8639Z" fill="#FF6600"/>
<path d="M7.09703 50.6031C7.5843 50.6031 7.97934 50.2082 7.97934 49.7209C7.97934 49.2337 7.5843 48.8387 7.09703 48.8387C6.60977 48.8387 6.21484 49.2337 6.21484 49.7209C6.21484 50.2081 6.60988 50.6031 7.09703 50.6031Z" fill="#FF6600"/>
<path d="M7.09703 55.3421C7.5843 55.3421 7.97934 54.9472 7.97934 54.4599C7.97934 53.9728 7.5843 53.5777 7.09703 53.5777C6.60977 53.5777 6.21484 53.9727 6.21484 54.4599C6.21484 54.9471 6.60988 55.3421 7.09703 55.3421Z" fill="#FF6600"/>
<path d="M56.9098 13.8423C56.5552 13.3935 56.2201 12.9694 56.058 12.5787C55.8832 12.1569 55.8142 11.5997 55.7414 11.0095C55.6135 9.9757 55.4687 8.80395 54.6509 7.98633C53.8332 7.16871 52.6613 7.02387 51.6275 6.89602C51.0372 6.82312 50.4798 6.75422 50.058 6.57938C49.6672 6.4173 49.2432 6.08238 48.7942 5.72766C48.1766 5.23957 47.4972 4.70367 46.694 4.46051V4.19461C46.6941 1.8818 44.8122 0 42.4991 0H5.88453C3.57137 0 1.68945 1.8818 1.68945 4.19473V7.58719C1.68945 8.0727 2.08285 8.46609 2.56836 8.46609C3.05387 8.46609 3.44727 8.0727 3.44727 7.58719V4.19473C3.44727 2.85094 4.54062 1.75781 5.88453 1.75781H42.4991C43.843 1.75781 44.9363 2.85094 44.9363 4.19473V4.46074C44.1333 4.70402 43.4542 5.23969 42.8366 5.72777C42.3876 6.08238 41.9636 6.41742 41.5729 6.57949C41.1512 6.75422 40.5937 6.82312 40.0034 6.89613C38.9696 7.02387 37.7978 7.16871 36.98 7.98633C36.1621 8.80406 36.0173 9.97582 35.8894 11.0096C35.8166 11.5997 35.7476 12.157 35.5728 12.5788C35.4107 12.9695 35.0757 13.3936 34.721 13.8424C34.0643 14.6734 33.3201 15.6152 33.3201 16.821C33.3201 18.0267 34.0644 18.9686 34.721 19.7995C35.0756 20.2484 35.4107 20.6725 35.5728 21.0632C35.7476 21.4849 35.8166 22.0421 35.8894 22.6324C36.0173 23.6661 36.1621 24.8379 36.9799 25.6555C37.7976 26.4732 38.9695 26.618 40.0033 26.7458C40.3115 26.7839 40.6102 26.8213 40.886 26.8729V40.158C40.886 40.6787 41.1766 41.1437 41.6445 41.3715C42.1123 41.5997 42.6576 41.5418 43.0679 41.2206L44.9362 39.7577V55.8054C44.9362 57.1492 43.8428 58.2423 42.4989 58.2423H5.88453C4.54062 58.2423 3.44727 57.1492 3.44727 55.8054V11.4575C3.44727 10.972 3.05387 10.5786 2.56836 10.5786C2.08285 10.5786 1.68945 10.972 1.68945 11.4575V55.8053C1.68945 58.1182 3.57137 60 5.88453 60H42.4991C44.8122 60 46.6941 58.1182 46.6941 55.8053V39.7576L48.5624 41.2204C48.8063 41.4114 49.0981 41.5093 49.3932 41.5093C49.5943 41.5093 49.7968 41.4637 49.9866 41.3713C50.4547 41.1435 50.7455 40.6785 50.7455 40.1579V30.3497C50.7455 29.8642 50.3521 29.4708 49.8666 29.4708C49.3811 29.4708 48.9877 29.8642 48.9877 30.3497V39.321L46.6514 37.4918C46.4152 37.3049 46.1183 37.2019 45.8151 37.2019C45.5119 37.2019 45.215 37.3049 44.9826 37.4888L42.6437 39.32V27.7624C42.7074 27.8123 42.7715 27.8629 42.8364 27.9141C43.6675 28.5708 44.6095 29.3148 45.8153 29.3148C47.0211 29.3148 47.963 28.5707 48.7941 27.9142C49.2431 27.5596 49.6672 27.2244 50.0579 27.0623C50.4796 26.8876 51.0371 26.8187 51.6274 26.7457C52.6612 26.618 53.833 26.4731 54.6509 25.6555C55.4685 24.8378 55.6134 23.666 55.7412 22.6323C55.8142 22.0421 55.8832 21.4848 56.058 21.063C56.2201 20.6723 56.5551 20.2482 56.9098 19.7994C57.5665 18.9684 58.3107 18.0266 58.3107 16.8209C58.3107 15.6151 57.5664 14.6733 56.9098 13.8423ZM55.5307 18.7096C55.1172 19.2328 54.6897 19.7738 54.4344 20.3897C54.168 21.0319 54.0809 21.7358 53.9968 22.4166C53.8947 23.2423 53.7984 24.0221 53.4082 24.4124C53.0178 24.8026 52.2378 24.8989 51.412 25.001C50.7311 25.0852 50.0273 25.1721 49.3849 25.4385C48.7689 25.6938 48.228 26.1212 47.7048 26.5346C47.0392 27.0602 46.4108 27.5569 45.8156 27.5569C45.2204 27.5569 44.5919 27.0604 43.9264 26.5346C43.4032 26.1213 42.8622 25.6938 42.2463 25.4385C42.2039 25.4209 42.0567 25.3649 42.0249 25.355C41.444 25.153 40.8226 25.0755 40.2191 25.001C39.3932 24.8989 38.6132 24.8025 38.2229 24.4123C37.8328 24.0221 37.7363 23.2423 37.6343 22.4167C37.5501 21.7358 37.4632 21.0321 37.1968 20.3897C36.9413 19.7738 36.5139 19.2328 36.1005 18.7096C35.5749 18.0442 35.0783 17.4158 35.0783 16.8209C35.0783 16.2259 35.5748 15.5975 36.1005 14.9321C36.5139 14.4089 36.9414 13.868 37.1968 13.252C37.4632 12.6098 37.5502 11.9059 37.6343 11.2252C37.7363 10.3995 37.8328 9.61957 38.223 9.22934C38.6133 8.8391 39.3933 8.74277 40.2192 8.6407C40.9 8.55656 41.6039 8.46961 42.2463 8.20324C42.8622 7.94789 43.4032 7.52051 43.9264 7.10707C44.5905 6.58242 45.2179 6.08695 45.8121 6.08508C45.8131 6.08508 45.8143 6.0852 45.8153 6.0852C45.8165 6.0852 45.8177 6.08508 45.8189 6.08508C46.4131 6.08684 47.0405 6.58242 47.7048 7.10707C48.228 7.52039 48.7689 7.94789 49.3849 8.20324C50.0272 8.46961 50.7312 8.55668 51.4121 8.6407C52.2379 8.74277 53.0179 8.83922 53.4082 9.22945C53.7984 9.61969 53.8948 10.3995 53.9969 11.2252C54.081 11.9059 54.168 12.6097 54.4344 13.252C54.6898 13.868 55.1172 14.4089 55.5307 14.9321C56.0562 15.5975 56.5529 16.2259 56.5529 16.8209C56.5529 17.4158 56.0564 18.0443 55.5307 18.7096Z" fill="#FF6600"/>
<path d="M51.4588 14.0278L48.468 13.1816L46.7386 10.5988C46.532 10.2904 46.1873 10.1064 45.8161 10.1064C45.445 10.1064 45.1001 10.2905 44.8936 10.5988L43.1643 13.1816L40.1732 14.028C39.816 14.1291 39.5343 14.4004 39.4197 14.7533C39.3051 15.1063 39.3738 15.4913 39.6032 15.7826L41.5254 18.2251L41.4061 21.3303C41.3917 21.7013 41.5623 22.0531 41.8627 22.2714C42.0555 22.4114 42.2839 22.4839 42.5148 22.4839C42.644 22.4839 42.7738 22.4612 42.8985 22.4153L45.8159 21.3421L48.7331 22.4152C49.0815 22.5436 49.4685 22.4897 49.7689 22.2716C50.0692 22.0535 50.2401 21.7019 50.2258 21.3307L50.1065 18.225L52.0288 15.7825C52.2583 15.4908 52.3268 15.1061 52.2121 14.7531C52.0979 14.4001 51.8161 14.129 51.4588 14.0278ZM48.5775 17.3258C48.4151 17.5326 48.3311 17.7911 48.3411 18.0546L48.4322 20.4317L46.1995 19.6103C45.9521 19.5192 45.6796 19.5194 45.4327 19.6102L43.1997 20.4317L43.291 18.0538C43.3008 17.7912 43.2167 17.5327 43.0539 17.3253L41.5827 15.4559L43.8725 14.8082C44.1257 14.7364 44.3459 14.5763 44.4923 14.3576L45.8159 12.3807L47.1394 14.3574C47.2859 14.5762 47.5061 14.7362 47.7598 14.8083L50.0491 15.4559L48.5775 17.3258Z" fill="#FF6600"/>
</g>
<defs>
<clipPath id="clip0">
<rect width="60" height="60" fill="white"/>
</clipPath>
</defs>
</svg>
