<svg width="120" height="120" viewBox="0 0 120 120" fill="none" xmlns="http://www.w3.org/2000/svg">
<rect width="120" height="120" rx="60" fill="white"/>
<g clip-path="url(#clip0)">
<path d="M41.377 67.8872V69.5072C41.377 70.0442 41.8127 70.48 42.3497 70.48C42.8871 70.48 43.3229 70.0442 43.3229 69.5072V67.8872C43.3229 67.3502 42.8871 66.9144 42.3497 66.9144C41.8127 66.9144 41.377 67.3502 41.377 67.8872Z" fill="#FF6600"/>
<path d="M46.0137 67.8872V69.5072C46.0137 70.0442 46.449 70.48 46.9864 70.48C47.5234 70.48 47.9592 70.0442 47.9592 69.5072V67.8872C47.9592 67.3502 47.5234 66.9144 46.9864 66.9144C46.449 66.9144 46.0137 67.3502 46.0137 67.8872Z" fill="#FF6600"/>
<path d="M53.4883 59.5669V61.0263C53.4883 61.5115 53.8815 61.9047 54.3667 61.9047C54.8524 61.9047 55.2456 61.5115 55.2456 61.0263V59.5669C55.2456 59.0817 54.8524 58.688 54.3667 58.688C53.8815 58.688 53.4883 59.0817 53.4883 59.5669Z" fill="#FF6600"/>
<path d="M44.1309 58.688C43.6456 58.688 43.252 59.0817 43.252 59.5669V61.0263C43.252 61.5115 43.6456 61.9047 44.1309 61.9047C44.6165 61.9047 45.0098 61.5115 45.0098 61.0263V59.5669C45.0098 59.0817 44.6165 58.688 44.1309 58.688Z" fill="#FF6600"/>
<path d="M59.8324 52.5037C58.8038 53.0974 58.1428 54.115 58.0187 55.2956C57.8951 56.4743 58.3296 57.6055 59.2112 58.3983L62.0521 60.9535C62.736 61.5683 64.0012 62.0393 65.2628 61.8118C66.4311 61.6008 67.3663 60.7993 67.8483 59.7135C69.6555 55.6421 69.7434 52.8324 68.1092 51.3625C66.475 49.8926 63.69 50.2762 59.8324 52.5037ZM66.242 59.0003C65.9907 59.5656 65.5004 59.9639 64.8962 60.0929C64.2938 60.2216 63.6858 60.0586 63.2276 59.6466L60.3867 57.0914C59.9285 56.6789 59.7028 56.0916 59.7669 55.4791C59.831 54.8648 60.1757 54.3347 60.7113 54.0257C62.7369 52.8562 65.624 51.601 66.9337 52.6694C67.9366 53.4874 67.6437 55.8421 66.242 59.0003Z" fill="#FF6600"/>
<path d="M91.3396 56.125C88.7098 56.125 88.6795 58.8285 88.6795 58.8285C87.6775 55.0268 85.3145 51.5323 81.7806 48.7198C81.4007 48.4177 80.8477 48.4804 80.5456 48.8603C80.2435 49.2398 80.3062 49.7928 80.6861 50.0954C85.0591 53.5757 87.4669 58.1653 87.4669 63.0184C87.4669 67.6258 85.266 72.0441 81.2688 75.459C80.1455 76.4185 79.501 77.8051 79.501 79.2621V84.1574C79.501 85.1233 78.7155 85.9093 77.7496 85.9093C76.7837 85.9093 75.9977 85.1233 75.9977 84.1574V81.6393C75.9977 81.0295 75.7002 80.4555 75.2021 80.1035C74.7068 79.7537 74.0705 79.6654 73.5006 79.8673C70.3924 80.9691 67.0727 81.5276 63.634 81.5276C61.5924 81.5276 59.5641 81.3262 57.6058 80.9288C57.0496 80.8158 56.4792 80.9567 56.0402 81.3156C55.6031 81.6731 55.3522 82.2023 55.3522 82.7672V84.1574C55.3522 85.1233 54.5662 85.9093 53.6004 85.9093C52.6345 85.9093 51.849 85.1233 51.849 84.1574V82.1428C51.849 80.3777 50.9014 78.7306 49.3771 77.844C47.6289 76.8277 46.0862 75.6462 44.7665 74.3178C45.7237 74.3828 47.2315 74.1837 48.1315 73.8862C48.5925 73.7342 48.8428 73.237 48.6909 72.7761C48.5384 72.3151 48.0413 72.0652 47.5803 72.2172C46.8585 72.4557 46.0871 72.5765 45.287 72.5765C42.2621 72.5765 39.8011 70.8361 39.8011 68.697C39.8011 66.5583 42.2621 64.8179 45.287 64.8179C48.3118 64.8179 50.7728 66.5583 50.7728 68.697C50.7728 69.3159 50.5677 69.9096 50.1635 70.4612C49.8765 70.8526 49.9612 71.4023 50.3525 71.6894C50.7439 71.9764 51.2937 71.8917 51.5807 71.5003C52.2024 70.653 52.5306 69.6834 52.5306 68.697C52.5306 65.5888 49.2809 63.0601 45.287 63.0601C43.1639 63.0601 41.2513 63.7747 39.9252 64.9108C39.8433 64.2832 39.8011 63.6511 39.8011 63.0184C39.8011 52.8122 50.4926 44.5089 63.634 44.5089C68.8557 44.5089 73.8147 45.7993 77.9748 48.2396C78.3932 48.4854 78.9315 48.3454 79.1773 47.9265C79.4231 47.5081 79.2826 46.9693 78.8642 46.724C75.8773 44.9712 72.5091 43.7769 68.9354 43.1841C68.8287 40.3515 66.4923 38.0796 63.634 38.0796C60.7753 38.0796 58.4384 40.3519 58.3322 43.185C53.5546 43.9774 47.9589 46.3939 43.6175 50.3796C41.5338 48.837 36.7978 47.6569 35.1636 49.1267C33.5294 50.5966 33.6168 53.4064 35.4245 57.4777C35.972 58.7109 37.1205 59.5065 38.3958 59.6379C38.1633 60.7438 38.0433 61.8736 38.0433 63.018C38.0433 64.2782 38.1917 65.537 38.481 66.7666C38.1981 67.369 38.0433 68.019 38.0433 68.697C38.0433 70.8352 39.581 72.6987 41.8409 73.6541C43.011 75.156 44.4071 76.516 46.0093 77.7195V84.1574C46.0093 86.0924 47.5835 87.6666 49.519 87.6666C50.2624 87.6666 50.9733 87.4313 51.561 87.0106C52.136 87.4226 52.84 87.6666 53.6004 87.6666C55.5353 87.6666 57.1096 86.0924 57.1096 84.1574C57.1096 84.1574 57.1242 82.6994 57.1526 82.6761C57.1823 82.6518 60.4819 83.2849 63.634 83.2849C65.8624 83.2849 68.0441 83.062 70.1585 82.6212V84.157C70.1585 86.0924 71.7328 87.6666 73.6677 87.6666C74.4116 87.6666 75.1225 87.4309 75.7098 87.0102C76.2852 87.4226 76.9892 87.6666 77.7496 87.6666C79.6845 87.6666 81.2588 86.0924 81.2588 84.157V79.2617C81.2588 78.3196 81.6785 77.4205 82.4105 76.7952C85.7696 73.9255 87.9732 70.3902 88.826 66.5926C91.7008 66.4626 94.0001 64.0841 94.0001 61.1773V58.7851C93.9996 57.3184 92.8063 56.125 91.3396 56.125ZM63.634 39.8374C65.4399 39.8374 66.9336 41.1933 67.1542 42.9401C65.997 42.8147 64.8219 42.751 63.634 42.751C62.4466 42.751 61.2711 42.816 60.1139 42.9415C60.3336 41.1937 61.8277 39.8374 63.634 39.8374ZM37.0308 56.7645C35.6291 53.6064 35.3769 51.2993 36.3391 50.4337C37.283 49.5845 39.4844 50.045 42.3934 51.6943C40.7734 53.5927 39.5837 55.6856 38.8618 57.8975C38.0887 57.9336 37.3562 57.4974 37.0308 56.7645ZM47.7671 84.1574V78.9238C48.0061 79.0731 50.0912 79.7341 50.0912 82.1423V84.1574C50.0912 84.6925 50.212 85.2002 50.4272 85.6547C50.1575 85.8186 49.8444 85.9093 49.519 85.9093C48.5531 85.9093 47.7671 85.1233 47.7671 84.1574ZM71.9163 84.1574V82.2C72.6497 82.0014 74.2399 81.6393 74.2399 81.6393V84.1574C74.2399 84.6925 74.3612 85.2002 74.5764 85.6547C74.3063 85.8186 73.9932 85.9093 73.6677 85.9093C72.7018 85.9093 71.9163 85.1233 71.9163 84.1574ZM92.2423 61.1778C92.2423 63.012 90.8869 64.5355 89.1254 64.8005C89.1904 64.2104 89.2247 63.6163 89.2247 63.0184C89.2247 62.985 89.2234 62.9521 89.2234 62.9191C89.9311 62.6563 90.4374 61.9761 90.4374 61.1778V58.7855C90.4374 58.2879 90.842 57.8833 91.3396 57.8833C91.8372 57.8833 92.2423 58.2879 92.2423 58.7855V61.1778Z" fill="#FF6600"/>
<path d="M63.6343 37.5239C65.0882 37.5239 66.271 36.3411 66.271 34.8872V30.8712C66.271 29.4174 65.0882 28.2345 63.6343 28.2345C62.1805 28.2345 60.998 29.4174 60.998 30.8712V34.8872C60.998 36.3411 62.1805 37.5239 63.6343 37.5239ZM62.7554 30.8712C62.7554 30.3865 63.1495 29.9923 63.6343 29.9923C64.1191 29.9923 64.5132 30.3865 64.5132 30.8712V34.8872C64.5132 35.372 64.1191 35.7661 63.6343 35.7661C63.1495 35.7661 62.7554 35.372 62.7554 34.8872V30.8712Z" fill="#FF6600"/>
<path d="M53.9007 39.3321C54.3987 39.8301 56.0027 40.9452 57.6296 39.3321C59.2909 37.6841 58.1272 36.1012 57.6296 35.6031L55.984 33.9579C54.9558 32.9298 53.2438 32.8918 52.2555 33.9579C50.6771 35.6608 51.7574 37.1884 52.2555 37.6864L53.9007 39.3321ZM53.4983 35.2007C54.0073 34.705 54.5699 35.0295 54.7411 35.2007L56.3868 36.8464C56.553 37.0121 56.8601 37.5862 56.3868 38.0892C56.0439 38.4316 55.4868 38.4321 55.144 38.0892L53.4983 36.4436C53.1554 36.1012 53.1509 35.539 53.4983 35.2007Z" fill="#FF6600"/>
<path d="M73.3678 39.332L75.0135 37.6864C75.5111 37.1883 76.6161 35.6292 75.0135 33.9579C74.0073 32.9083 72.3127 32.9298 71.2845 33.9579L69.6393 35.6031C69.1413 36.1012 68.0765 37.8365 69.6393 39.332C71.3861 41.0038 72.8698 39.8301 73.3678 39.332ZM70.8821 36.8464L72.5273 35.2007C72.699 35.0295 73.2785 34.748 73.7706 35.2007C74.1272 35.5289 74.113 36.1012 73.7706 36.4436L72.125 38.0892C71.9588 38.2549 71.4296 38.5909 70.8821 38.0892C70.3965 37.6438 70.716 37.0121 70.8821 36.8464Z" fill="#FF6600"/>
</g>
<defs>
<clipPath id="clip0">
<rect x="34" y="28" width="60" height="60" fill="white"/>
</clipPath>
</defs>
</svg>
